<svg xmlns="http://www.w3.org/2000/svg" width="512" height="512" viewBox="0 0 512 512">
  <defs>
    <linearGradient id="gradient1" x1="0%" y1="0%" x2="100%" y2="100%">
      <stop offset="0%" stop-color="#60a5fa" />
      <stop offset="100%" stop-color="#3b82f6" />
    </linearGradient>
  </defs>
  <rect x="0" y="0" width="512" height="512" rx="50" ry="50" fill="#1e293b" />
  <g transform="translate(90, 90) scale(0.65)">
    <!-- Stylized T for TalentScout -->
    <path d="M256 80 L400 80 L400 120 L346 120 L346 400 L306 400 L306 120 L256 120 Z" fill="url(#gradient1)" />
    
    <!-- Magnifying glass representing "scout" -->
    <circle cx="180" cy="230" r="100" fill="none" stroke="url(#gradient1)" stroke-width="20" />
    <path d="M250 300 L340 390" stroke="url(#gradient1)" stroke-width="25" stroke-linecap="round" />
    
    <!-- AI symbol - circuit-like pattern -->
    <circle cx="180" cy="230" r="40" fill="#1e293b" stroke="url(#gradient1)" stroke-width="8" />
    <path d="M180 190 L180 160" stroke="url(#gradient1)" stroke-width="8" stroke-linecap="round" />
    <path d="M180 270 L180 300" stroke="url(#gradient1)" stroke-width="8" stroke-linecap="round" />
    <path d="M140 230 L110 230" stroke="url(#gradient1)" stroke-width="8" stroke-linecap="round" />
    <path d="M220 230 L250 230" stroke="url(#gradient1)" stroke-width="8" stroke-linecap="round" />
    <path d="M150 200 L130 180" stroke="url(#gradient1)" stroke-width="8" stroke-linecap="round" />
    <path d="M210 260 L230 280" stroke="url(#gradient1)" stroke-width="8" stroke-linecap="round" />
    <path d="M150 260 L130 280" stroke="url(#gradient1)" stroke-width="8" stroke-linecap="round" />
    <path d="M210 200 L230 180" stroke="url(#gradient1)" stroke-width="8" stroke-linecap="round" />
  </g>
</svg>
